<svg xmlns="http://www.w3.org/2000/svg" xmlns:xlink="http://www.w3.org/1999/xlink" width="256" height="256" viewBox="0 0 256 256">
  <defs>
    <filter id="Kreis" x="9" y="9" width="238" height="238" filterUnits="userSpaceOnUse">
      <feOffset input="SourceAlpha"/>
      <feGaussianBlur stdDeviation="8" result="blur"/>
      <feFlood flood-opacity="0.161"/>
      <feComposite operator="in" in2="blur"/>
      <feComposite in="SourceGraphic"/>
    </filter>
    <clipPath id="clip-icon-128x128">
      <rect width="256" height="256"/>
    </clipPath>
  </defs>
  <g id="icon-128x128" clip-path="url(#clip-icon-128x128)">
    <rect width="256" height="256" fill="#fff"/>
    <rect id="Weisser_Grund" data-name="Weisser Grund" width="256" height="256" fill="#fff"/>
    <g id="Combined_Shape" data-name="Combined Shape" transform="translate(-271.798 -24)" fill="#353535" stroke-miterlimit="10">
      <path d="M 399.7980651855469 170.9999542236328 C 259.4634399414062 170.9999542236328 123.403434753418 159.2925720214844 -4.602693557739258 136.2032012939453 L -25.98731803894043 132.3458251953125 L -25.98731803894043 110.616081237793 L -25.98731803894043 -4.57763671875e-05 L -25.98731803894043 -26.00004577636719 L 0.0126813966780901 -26.00004577636719 L 799.5842895507812 -26.00004577636719 L 825.5842895507812 -26.00004577636719 L 825.5842895507812 -4.57763671875e-05 L 825.5842895507812 110.6159515380859 L 825.5842895507812 132.345703125 L 804.19970703125 136.2030792236328 C 676.1930541992188 159.2925720214844 540.1326904296875 170.9999542236328 399.7980651855469 170.9999542236328 Z" stroke="none"/>
      <path d="M 399.7979736328125 144.9999542236328 C 541.75048828125 144.9999542236328 676.88818359375 132.7474517822266 799.5843505859375 110.6160888671875 L 799.5843505859375 -4.57763671875e-05 L 0.01252230536192656 -4.57763671875e-05 L 0.01252230536192656 110.6160888671875 C 122.7086563110352 132.7476806640625 257.8454895019531 144.9999542236328 399.7979736328125 144.9999542236328 M 399.7979736328125 196.9999542236328 C 257.9202575683594 196.9999542236328 120.3072967529297 185.1535949707031 -9.218159675598145 161.7901763916016 L -51.98747634887695 154.0756378173828 L -51.98747634887695 110.6160888671875 L -51.98747634887695 -4.57763671875e-05 L -51.98747634887695 -52.00004577636719 L 0.01252230536192656 -52.00004577636719 L 799.5843505859375 -52.00004577636719 L 851.5843505859375 -52.00004577636719 L 851.5843505859375 -4.57763671875e-05 L 851.5843505859375 110.6160888671875 L 851.5843505859375 154.0756378173828 L 808.8148193359375 161.7901763916016 C 679.2882080078125 185.1538238525391 541.675048828125 196.9999542236328 399.7979736328125 196.9999542236328 Z" stroke="none" fill="#77adbf"/>
    </g>
    <g transform="matrix(1, 0, 0, 1, 0, 0)" filter="url(#Kreis)">
      <circle id="Kreis-2" data-name="Kreis" cx="95" cy="95" r="95" transform="translate(33 33)" fill="#fff"/>
    </g>
    <g id="camera_alt-24px" transform="translate(82.853 82.853)">
      <path id="Path_15" data-name="Path 15" d="M0,0H91.294V91.294H0Z" fill="none"/>
      <circle id="Ellipse_1" data-name="Ellipse 1" cx="12" cy="12" r="12" transform="translate(33.647 33.647)" fill="#77adbf"/>
      <path id="Path_16" data-name="Path 16" d="M28.628,2,21.666,9.608H9.608A7.63,7.63,0,0,0,2,17.216V62.863a7.63,7.63,0,0,0,7.608,7.608H70.471a7.63,7.63,0,0,0,7.608-7.608V17.216a7.63,7.63,0,0,0-7.608-7.608H58.412L51.451,2ZM40.039,59.059a19.02,19.02,0,1,1,19.02-19.02A19.027,19.027,0,0,1,40.039,59.059Z" transform="translate(5.608 5.608)" fill="#77adbf"/>
    </g>
  </g>
</svg>
